<!-- <svg width="82" height="81" viewBox="0 0 82 81" fill="none" xmlns="http://www.w3.org/2000/svg">
<path fill-rule="evenodd" clip-rule="evenodd" d="M36.5817 0C20.0621 6.48402 8.20905 18.6503 4.08497 27.3615C1.46802 32.221 0 37.6783 0 43.4454C0 63.7795 18.2506 80.2635 40.7639 80.2635C63.2772 80.2635 81.5278 63.7795 81.5278 43.4454C81.5278 23.1113 63.2772 6.6272 40.7639 6.6272C37.1007 6.6272 33.5503 7.06364 30.173 7.88208L36.5817 0ZM40.7638 62.5909C52.2328 62.5909 61.5303 54.0192 61.5303 43.4455C61.5303 32.8717 52.2328 24.3 40.7638 24.3C29.2948 24.3 19.9973 32.8717 19.9973 43.4455C19.9973 54.0192 29.2948 62.5909 40.7638 62.5909Z" fill="#ED1C24"/>
</svg> -->
<svg width="59" height="58" viewBox="0 0 82 81" fill="none" xmlns="http://www.w3.org/2000/svg">
    <path fill-rule="evenodd" clip-rule="evenodd"
        d="M36.5817 0C20.0621 6.48402 8.20905 18.6503 4.08497 27.3615C1.46802 32.221 0 37.6783 0 43.4454C0 63.7795 18.2506 80.2635 40.7639 80.2635C63.2772 80.2635 81.5278 63.7795 81.5278 43.4454C81.5278 23.1113 63.2772 6.6272 40.7639 6.6272C37.1007 6.6272 33.5503 7.06364 30.173 7.88208L36.5817 0ZM40.7638 62.5909C52.2328 62.5909 61.5303 54.0192 61.5303 43.4455C61.5303 32.8717 52.2328 24.3 40.7638 24.3C29.2948 24.3 19.9973 32.8717 19.9973 43.4455C19.9973 54.0192 29.2948 62.5909 40.7638 62.5909Z"
        fill="#ED1C24" />
</svg>